#Comment line ignore any data following # character
#Hierarchical Translation and Rotation (.htr) file
[Header]		#Header keywords are followed by a single value
FileType htr		#Single word string
DataType HTRS		#Translation followed by rotation and scale data
FileVersion 1		#integer
NumSegments 15		#integer
NumFrames 5		#integer
DataFrameRate 60		#integer, data frame rate in this file
EulerRotationOrder ZYX
CalibrationUnits mm
RotationUnits Degrees
GlobalAxisofGravity Y
BoneLengthAxis Y
ScaleFactor 1.000000
[SegmentNames&Hierarchy]
#CHILD	PARENT
1cou	1buste
1buste	1bassin
1brasG	1buste
1brasD	1buste
1avbrasG	1brasG
1avbrasD	1brasD
1mainG	1avbrasG
1mainD	1avbrasD
1bassin	GLOBAL
1cuisseG	1bassin
1cuisseD	1bassin
1moletG	1cuisseG
1moletD	1cuisseD
1piedG	1moletG
1piedD	1moletD
[BasePosition]
#SegmentName Tx, Ty, Tz, Rx, Ry, Rz, BoneLength
1cou	0.000002	394.639771	0.000003	47.447697	-6.500580	2.097482	232.574402
1buste	0.331046	98.159424	9.920088	5.813737	-6.959647	-0.900074	394.639771
1brasG	222.293304	333.760773	-3.143221	-5.521868	-4.449825	-174.025208	338.016541
1brasD	-186.675308	347.235016	-30.968008	-5.508482	16.777920	169.824814	318.101379
1avbrasG	0.000004	338.016571	-0.000002	34.403133	17.432653	23.106703	253.821075
1avbrasD	-0.000007	318.101410	-0.000013	32.381824	-10.529597	-11.344105	276.946075
1mainG	0.000006	253.821091	-0.000001	-3.773718	-0.485368	-1.748444	73.639816
1mainD	-0.000031	276.946106	-0.000010	-3.909555	0.199285	0.225476	80.942635
1bassin	396.031860	1037.839600	833.112305	178.297836	19.764000	-179.799622	97.859962
1cuisseG	108.625954	-0.934603	-40.474510	172.403458	-4.353497	-0.165467	517.714233
1cuisseD	-106.972656	-1.326527	-48.733826	172.076172	-12.757409	2.045154	501.698334
1moletG	0.000006	517.714233	-0.000009	157.872192	5.331374	176.676331	488.075745
1moletD	-0.000005	501.698303	0.000003	156.316269	3.295414	-177.725830	511.880615
1piedG	0.000002	488.075745	-0.000006	99.880898	-0.000004	0.000000	242.425140
1piedD	-0.000009	511.880646	-0.000013	102.622849	0.000000	0.000000	237.138092
#Beginning of Data. Separated by tabs
[1cou]
#Fr	Tx	Ty	Tz	Rx	Ry	Rz	SF
75	-0.000035	-40.805786	0.000015	-19.295746	-24.838198	32.574932	0.948942
76	-0.000005	-40.458984	-0.000020	-21.594202	-27.683649	31.401978	0.943093
77	-0.000009	-39.661682	-0.000009	-21.831654	-29.191319	30.311419	0.928849
78	-0.000028	-38.222748	-0.000031	-18.470091	-27.810038	28.726883	0.921461
79	-0.000003	-37.462158	-0.000016	-12.062114	-23.450867	26.376129	0.929860
[1buste]
#Fr	Tx	Ty	Tz	Rx	Ry	Rz	SF
75	18.227386	-11.708321	-7.331910	-5.870379	-23.407476	-9.046223	0.896600
76	17.658175	-11.544060	-6.122534	-5.091221	-26.117926	-8.835031	0.897479
77	16.231050	-11.060966	-6.028785	-4.961970	-27.046618	-7.862143	0.899499
78	14.057232	-10.271568	-7.044964	-5.508361	-26.524296	-6.123213	0.903145
79	12.416350	-9.800659	-7.990909	-6.010756	-25.586857	-4.834382	0.905073
[1brasG]
#Fr	Tx	Ty	Tz	Rx	Ry	Rz	SF
75	-81.213654	-8.731720	51.300110	99.988487	11.514557	58.765091	0.899635
76	-79.479828	-12.614288	51.696098	98.261780	13.637895	59.241840	0.900715
77	-77.402588	-14.944824	51.199814	96.515343	15.682261	59.118782	0.896778
78	-76.041519	-14.524475	50.042564	94.138367	17.470457	59.284924	0.899621
79	-74.817383	-13.715729	48.914169	90.490913	19.172844	58.367653	0.912460
[1brasD]
#Fr	Tx	Ty	Tz	Rx	Ry	Rz	SF
75	-10.463150	-66.879089	-19.750563	12.268373	3.981260	-7.115290	0.825565
76	-10.768372	-66.327942	-21.898596	13.356279	-3.185466	-9.251082	0.844570
77	-9.113632	-63.321899	-22.130949	14.056519	-9.911829	-11.240685	0.839881
78	-8.147141	-61.078583	-22.073328	13.687201	-15.749178	-11.160417	0.800084
79	-7.495682	-61.340027	-23.065950	12.691051	-20.345055	-8.754626	0.755530
[1avbrasG]
#Fr	Tx	Ty	Tz	Rx	Ry	Rz	SF
75	-0.000001	-33.925201	0.000008	31.076700	-9.083044	15.502866	1.115852
76	-0.000008	-33.560028	-0.000019	30.688549	-8.475161	15.806976	1.114867
77	0.000001	-34.890625	-0.000011	29.845112	-7.287476	16.347588	1.116579
78	-0.000030	-33.929871	-0.000017	29.690376	-6.001280	17.975863	1.117045
79	-0.000001	-29.589996	-0.000006	31.481096	-6.178245	20.074635	1.115450
[1avbrasD]
#Fr	Tx	Ty	Tz	Rx	Ry	Rz	SF
75	-0.000005	-55.488190	-0.000000	57.455502	-0.005291	-54.869587	0.891172
76	-0.000001	-49.442322	0.000016	60.897266	4.177246	-62.293159	0.874244
77	-0.000001	-50.934113	0.000035	62.380672	6.018979	-68.907661	0.868504
78	-0.000003	-63.593704	0.000016	62.638401	4.970407	-73.573212	0.865707
79	0.000007	-77.766418	0.000016	62.462181	2.256647	-76.933502	0.860345
[1mainG]
#Fr	Tx	Ty	Tz	Rx	Ry	Rz	SF
75	-0.000021	29.405716	-0.000008	1.891383	0.364479	1.509559	1.081385
76	-0.000032	29.155563	-0.000012	1.848015	0.359884	1.470721	1.080845
77	-0.000003	29.590073	0.000022	1.790271	0.351388	1.407595	1.083367
78	-0.000026	29.708603	-0.000001	1.788992	0.347377	1.381667	1.083924
79	0.000012	29.303726	-0.000007	1.910619	0.354394	1.466633	1.080834
[1mainD]
#Fr	Tx	Ty	Tz	Rx	Ry	Rz	SF
75	0.000018	-30.139542	0.000007	2.346578	-0.108394	-1.502250	0.847391
76	0.000024	-34.827560	0.000009	2.502332	-0.183305	-2.010822	0.831576
77	0.000035	-36.417282	0.000030	2.518214	-0.282317	-2.275257	0.827209
78	0.000045	-37.191910	0.000018	2.419908	-0.316603	-2.225132	0.824405
79	0.000040	-38.677032	0.000033	2.273796	-0.288622	-2.007934	0.818160
[1bassin]
#Fr	Tx	Ty	Tz	Rx	Ry	Rz	SF
75	-660.388245	-823.733521	-297.145203	-98.875069	-31.070505	93.855812	0.853361
76	-673.954468	-826.079224	-282.767334	-99.207222	-26.964266	91.428009	0.878393
77	-685.663940	-824.666504	-269.005615	-100.433388	-23.256916	91.459526	0.895539
78	-696.819519	-822.335083	-256.093872	-101.579025	-20.541603	93.638351	0.900882
79	-709.578491	-820.643860	-243.059021	-102.273987	-18.420956	96.249374	0.901514
[1cuisseG]
#Fr	Tx	Ty	Tz	Rx	Ry	Rz	SF
75	-17.554955	5.600533	-15.644787	-8.669796	-22.665468	-26.914509	0.964358
76	-13.843872	5.319922	-12.218346	-6.985256	-18.402588	-23.120161	0.983838
77	-11.183861	4.975971	-9.627804	-4.443134	-15.660919	-20.268341	0.998581
78	-10.320488	4.538451	-9.122742	-2.335691	-14.897972	-18.831745	1.003692
79	-10.207909	4.221215	-8.884502	-1.240730	-14.362090	-18.092976	1.001351
[1cuisseD]
#Fr	Tx	Ty	Tz	Rx	Ry	Rz	SF
75	9.376442	-4.326494	25.373638	-35.781010	-17.466576	-20.972319	1.068166
76	7.284401	-4.208985	20.716623	-35.890186	-15.810148	-19.009356	1.073197
77	6.025070	-3.795225	16.281113	-35.677414	-15.355788	-17.765352	1.077241
78	5.660271	-3.084892	14.249477	-35.655865	-16.619173	-17.506573	1.082468
79	5.742584	-2.524377	13.483425	-35.870556	-17.964256	-17.717676	1.088277
[1moletG]
#Fr	Tx	Ty	Tz	Rx	Ry	Rz	SF
75	-0.000004	-18.452606	0.000048	-39.816227	-21.757921	8.964287	0.946757
76	0.000001	-8.367554	0.000032	-39.462185	-21.493088	6.700644	0.946596
77	0.000005	-0.734436	0.000004	-38.433079	-20.721003	3.716261	0.940821
78	-0.000001	1.911499	-0.000005	-36.618904	-20.078190	1.368564	0.936805
79	-0.000003	0.699219	-0.000053	-34.549770	-20.708921	-0.016812	0.939974
[1moletD]
#Fr	Tx	Ty	Tz	Rx	Ry	Rz	SF
75	0.000002	34.199097	-0.000006	-79.165321	5.430951	13.770871	0.860100
76	-0.000001	36.723022	-0.000002	-79.271530	2.762014	12.487132	0.857445
77	0.000004	38.751953	-0.000055	-79.607048	-0.042509	11.372625	0.854737
78	0.000015	41.374329	-0.000010	-80.027222	-1.986140	10.087440	0.855352
79	0.000001	44.288696	0.000005	-80.404671	-3.264891	8.626833	0.857702
[1piedG]
#Fr	Tx	Ty	Tz	Rx	Ry	Rz	SF
75	0.000046	-25.986725	0.000001	9.195189	0.000000	-0.000003	1.026964
76	-0.000021	-26.065033	0.000035	8.319346	0.000000	-0.000003	1.025650
77	0.000000	-28.884094	0.000006	7.745234	-0.000001	-0.000005	1.030842
78	0.000014	-30.844116	-0.000008	8.171729	-0.000001	-0.000006	1.032878
79	0.000004	-29.297272	0.000003	8.684623	-0.000001	-0.000005	1.017928
[1piedD]
#Fr	Tx	Ty	Tz	Rx	Ry	Rz	SF
75	0.000018	-71.612183	-0.000003	8.946837	0.000000	0.000001	1.034793
76	0.000024	-72.971436	-0.000013	9.198620	-0.000001	-0.000000	1.037792
77	0.000011	-74.357269	-0.000042	9.212203	0.000000	0.000000	1.042730
78	-0.000008	-74.042389	-0.000007	9.119390	-0.000000	0.000001	1.042592
79	0.000004	-72.839569	0.000018	9.524634	-0.000000	0.000000	1.038374
[EndOfFile]
